%TF.GenerationSoftware,KiCad,Pcbnew,5.1.9-73d0e3b20d~88~ubuntu18.04.1*%
%TF.CreationDate,2021-04-04T15:33:15+02:00*%
%TF.ProjectId,resitor-substitution-board,72657369-746f-4722-9d73-756273746974,rev?*%
%TF.SameCoordinates,Original*%
%TF.FileFunction,Legend,Top*%
%TF.FilePolarity,Positive*%
%FSLAX46Y46*%
G04 Gerber Fmt 4.6, Leading zero omitted, Abs format (unit mm)*
G04 Created by KiCad (PCBNEW 5.1.9-73d0e3b20d~88~ubuntu18.04.1) date 2021-04-04 15:33:15*
%MOMM*%
%LPD*%
G01*
G04 APERTURE LIST*
%ADD10C,0.150000*%
%ADD11C,0.120000*%
G04 APERTURE END LIST*
D10*
X99951428Y-130444761D02*
X99951428Y-128444761D01*
X100618095Y-129873333D01*
X101284761Y-128444761D01*
X101284761Y-130444761D01*
X103094285Y-130444761D02*
X103094285Y-129397142D01*
X102999047Y-129206666D01*
X102808571Y-129111428D01*
X102427619Y-129111428D01*
X102237142Y-129206666D01*
X103094285Y-130349523D02*
X102903809Y-130444761D01*
X102427619Y-130444761D01*
X102237142Y-130349523D01*
X102141904Y-130159047D01*
X102141904Y-129968571D01*
X102237142Y-129778095D01*
X102427619Y-129682857D01*
X102903809Y-129682857D01*
X103094285Y-129587619D01*
X104903809Y-130444761D02*
X104903809Y-128444761D01*
X104903809Y-130349523D02*
X104713333Y-130444761D01*
X104332380Y-130444761D01*
X104141904Y-130349523D01*
X104046666Y-130254285D01*
X103951428Y-130063809D01*
X103951428Y-129492380D01*
X104046666Y-129301904D01*
X104141904Y-129206666D01*
X104332380Y-129111428D01*
X104713333Y-129111428D01*
X104903809Y-129206666D01*
X106618095Y-130349523D02*
X106427619Y-130444761D01*
X106046666Y-130444761D01*
X105856190Y-130349523D01*
X105760952Y-130159047D01*
X105760952Y-129397142D01*
X105856190Y-129206666D01*
X106046666Y-129111428D01*
X106427619Y-129111428D01*
X106618095Y-129206666D01*
X106713333Y-129397142D01*
X106713333Y-129587619D01*
X105760952Y-129778095D01*
X108903809Y-129111428D02*
X109284761Y-130444761D01*
X109665714Y-129492380D01*
X110046666Y-130444761D01*
X110427619Y-129111428D01*
X111189523Y-130444761D02*
X111189523Y-129111428D01*
X111189523Y-128444761D02*
X111094285Y-128540000D01*
X111189523Y-128635238D01*
X111284761Y-128540000D01*
X111189523Y-128444761D01*
X111189523Y-128635238D01*
X111856190Y-129111428D02*
X112618095Y-129111428D01*
X112141904Y-128444761D02*
X112141904Y-130159047D01*
X112237142Y-130349523D01*
X112427619Y-130444761D01*
X112618095Y-130444761D01*
X113284761Y-130444761D02*
X113284761Y-128444761D01*
X114141904Y-130444761D02*
X114141904Y-129397142D01*
X114046666Y-129206666D01*
X113856190Y-129111428D01*
X113570476Y-129111428D01*
X113380000Y-129206666D01*
X113284761Y-129301904D01*
X116903809Y-130444761D02*
X116713333Y-130349523D01*
X116618095Y-130159047D01*
X116618095Y-128444761D01*
X117951428Y-130444761D02*
X117760952Y-130349523D01*
X117665714Y-130254285D01*
X117570476Y-130063809D01*
X117570476Y-129492380D01*
X117665714Y-129301904D01*
X117760952Y-129206666D01*
X117951428Y-129111428D01*
X118237142Y-129111428D01*
X118427619Y-129206666D01*
X118522857Y-129301904D01*
X118618095Y-129492380D01*
X118618095Y-130063809D01*
X118522857Y-130254285D01*
X118427619Y-130349523D01*
X118237142Y-130444761D01*
X117951428Y-130444761D01*
X119284761Y-129111428D02*
X119760952Y-130444761D01*
X120237142Y-129111428D01*
X121760952Y-130349523D02*
X121570476Y-130444761D01*
X121189523Y-130444761D01*
X120999047Y-130349523D01*
X120903809Y-130159047D01*
X120903809Y-129397142D01*
X120999047Y-129206666D01*
X121189523Y-129111428D01*
X121570476Y-129111428D01*
X121760952Y-129206666D01*
X121856190Y-129397142D01*
X121856190Y-129587619D01*
X120903809Y-129778095D01*
X124237142Y-130444761D02*
X124237142Y-128444761D01*
X124237142Y-129206666D02*
X124427619Y-129111428D01*
X124808571Y-129111428D01*
X124999047Y-129206666D01*
X125094285Y-129301904D01*
X125189523Y-129492380D01*
X125189523Y-130063809D01*
X125094285Y-130254285D01*
X124999047Y-130349523D01*
X124808571Y-130444761D01*
X124427619Y-130444761D01*
X124237142Y-130349523D01*
X125856190Y-129111428D02*
X126332380Y-130444761D01*
X126808571Y-129111428D02*
X126332380Y-130444761D01*
X126141904Y-130920952D01*
X126046666Y-131016190D01*
X125856190Y-131111428D01*
X129094285Y-129397142D02*
X129760952Y-129397142D01*
X130046666Y-130444761D02*
X129094285Y-130444761D01*
X129094285Y-128444761D01*
X130046666Y-128444761D01*
X130903809Y-129111428D02*
X130903809Y-130444761D01*
X130903809Y-129301904D02*
X130999047Y-129206666D01*
X131189523Y-129111428D01*
X131475238Y-129111428D01*
X131665714Y-129206666D01*
X131760952Y-129397142D01*
X131760952Y-130444761D01*
X133570476Y-130349523D02*
X133379999Y-130444761D01*
X132999047Y-130444761D01*
X132808571Y-130349523D01*
X132713333Y-130254285D01*
X132618095Y-130063809D01*
X132618095Y-129492380D01*
X132713333Y-129301904D01*
X132808571Y-129206666D01*
X132999047Y-129111428D01*
X133379999Y-129111428D01*
X133570476Y-129206666D01*
X134237142Y-129111428D02*
X134713333Y-130444761D01*
X135189523Y-129111428D02*
X134713333Y-130444761D01*
X134522857Y-130920952D01*
X134427619Y-131016190D01*
X134237142Y-131111428D01*
X136237142Y-129301904D02*
X136046666Y-129206666D01*
X135951428Y-129111428D01*
X135856190Y-128920952D01*
X135856190Y-128825714D01*
X135951428Y-128635238D01*
X136046666Y-128540000D01*
X136237142Y-128444761D01*
X136618095Y-128444761D01*
X136808571Y-128540000D01*
X136903809Y-128635238D01*
X136999047Y-128825714D01*
X136999047Y-128920952D01*
X136903809Y-129111428D01*
X136808571Y-129206666D01*
X136618095Y-129301904D01*
X136237142Y-129301904D01*
X136046666Y-129397142D01*
X135951428Y-129492380D01*
X135856190Y-129682857D01*
X135856190Y-130063809D01*
X135951428Y-130254285D01*
X136046666Y-130349523D01*
X136237142Y-130444761D01*
X136618095Y-130444761D01*
X136808571Y-130349523D01*
X136903809Y-130254285D01*
X136999047Y-130063809D01*
X136999047Y-129682857D01*
X136903809Y-129492380D01*
X136808571Y-129397142D01*
X136618095Y-129301904D01*
X138141904Y-129301904D02*
X137951428Y-129206666D01*
X137856190Y-129111428D01*
X137760952Y-128920952D01*
X137760952Y-128825714D01*
X137856190Y-128635238D01*
X137951428Y-128540000D01*
X138141904Y-128444761D01*
X138522857Y-128444761D01*
X138713333Y-128540000D01*
X138808571Y-128635238D01*
X138903809Y-128825714D01*
X138903809Y-128920952D01*
X138808571Y-129111428D01*
X138713333Y-129206666D01*
X138522857Y-129301904D01*
X138141904Y-129301904D01*
X137951428Y-129397142D01*
X137856190Y-129492380D01*
X137760952Y-129682857D01*
X137760952Y-130063809D01*
X137856190Y-130254285D01*
X137951428Y-130349523D01*
X138141904Y-130444761D01*
X138522857Y-130444761D01*
X138713333Y-130349523D01*
X138808571Y-130254285D01*
X138903809Y-130063809D01*
X138903809Y-129682857D01*
X138808571Y-129492380D01*
X138713333Y-129397142D01*
X138522857Y-129301904D01*
X80732380Y-112894761D02*
X80732380Y-112704285D01*
X80780000Y-112609047D01*
X80875238Y-112513809D01*
X81065714Y-112466190D01*
X81399047Y-112466190D01*
X81589523Y-112513809D01*
X81684761Y-112609047D01*
X81732380Y-112704285D01*
X81732380Y-112894761D01*
X81684761Y-112990000D01*
X81589523Y-113085238D01*
X81399047Y-113132857D01*
X81065714Y-113132857D01*
X80875238Y-113085238D01*
X80780000Y-112990000D01*
X80732380Y-112894761D01*
X80732380Y-112037619D02*
X81541904Y-112037619D01*
X81637142Y-111990000D01*
X81684761Y-111942380D01*
X81732380Y-111847142D01*
X81732380Y-111656666D01*
X81684761Y-111561428D01*
X81637142Y-111513809D01*
X81541904Y-111466190D01*
X80732380Y-111466190D01*
X80732380Y-111132857D02*
X80732380Y-110561428D01*
X81732380Y-110847142D02*
X80732380Y-110847142D01*
X81732380Y-110228095D02*
X80732380Y-110228095D01*
X80732380Y-109847142D01*
X80780000Y-109751904D01*
X80827619Y-109704285D01*
X80922857Y-109656666D01*
X81065714Y-109656666D01*
X81160952Y-109704285D01*
X81208571Y-109751904D01*
X81256190Y-109847142D01*
X81256190Y-110228095D01*
X80732380Y-109228095D02*
X81541904Y-109228095D01*
X81637142Y-109180476D01*
X81684761Y-109132857D01*
X81732380Y-109037619D01*
X81732380Y-108847142D01*
X81684761Y-108751904D01*
X81637142Y-108704285D01*
X81541904Y-108656666D01*
X80732380Y-108656666D01*
X80732380Y-108323333D02*
X80732380Y-107751904D01*
X81732380Y-108037619D02*
X80732380Y-108037619D01*
X120031428Y-103274761D02*
X120174285Y-103322380D01*
X120412380Y-103322380D01*
X120507619Y-103274761D01*
X120555238Y-103227142D01*
X120602857Y-103131904D01*
X120602857Y-103036666D01*
X120555238Y-102941428D01*
X120507619Y-102893809D01*
X120412380Y-102846190D01*
X120221904Y-102798571D01*
X120126666Y-102750952D01*
X120079047Y-102703333D01*
X120031428Y-102608095D01*
X120031428Y-102512857D01*
X120079047Y-102417619D01*
X120126666Y-102370000D01*
X120221904Y-102322380D01*
X120460000Y-102322380D01*
X120602857Y-102370000D01*
X121031428Y-102798571D02*
X121364761Y-102798571D01*
X121507619Y-103322380D02*
X121031428Y-103322380D01*
X121031428Y-102322380D01*
X121507619Y-102322380D01*
X121793333Y-102322380D02*
X122364761Y-102322380D01*
X122079047Y-103322380D02*
X122079047Y-102322380D01*
X123745714Y-102322380D02*
X123745714Y-103036666D01*
X123698095Y-103179523D01*
X123602857Y-103274761D01*
X123460000Y-103322380D01*
X123364761Y-103322380D01*
X124221904Y-102322380D02*
X124221904Y-103131904D01*
X124269523Y-103227142D01*
X124317142Y-103274761D01*
X124412380Y-103322380D01*
X124602857Y-103322380D01*
X124698095Y-103274761D01*
X124745714Y-103227142D01*
X124793333Y-103131904D01*
X124793333Y-102322380D01*
X125269523Y-103322380D02*
X125269523Y-102322380D01*
X125602857Y-103036666D01*
X125936190Y-102322380D01*
X125936190Y-103322380D01*
X126412380Y-103322380D02*
X126412380Y-102322380D01*
X126793333Y-102322380D01*
X126888571Y-102370000D01*
X126936190Y-102417619D01*
X126983809Y-102512857D01*
X126983809Y-102655714D01*
X126936190Y-102750952D01*
X126888571Y-102798571D01*
X126793333Y-102846190D01*
X126412380Y-102846190D01*
X127412380Y-102798571D02*
X127745714Y-102798571D01*
X127888571Y-103322380D02*
X127412380Y-103322380D01*
X127412380Y-102322380D01*
X127888571Y-102322380D01*
X128888571Y-103322380D02*
X128555238Y-102846190D01*
X128317142Y-103322380D02*
X128317142Y-102322380D01*
X128698095Y-102322380D01*
X128793333Y-102370000D01*
X128840952Y-102417619D01*
X128888571Y-102512857D01*
X128888571Y-102655714D01*
X128840952Y-102750952D01*
X128793333Y-102798571D01*
X128698095Y-102846190D01*
X128317142Y-102846190D01*
X100782380Y-94390595D02*
X100782380Y-94962023D01*
X100782380Y-94676309D02*
X99782380Y-94676309D01*
X99925238Y-94771547D01*
X100020476Y-94866785D01*
X100068095Y-94962023D01*
X100782380Y-93962023D02*
X99782380Y-93962023D01*
X100496666Y-93628690D01*
X99782380Y-93295357D01*
X100782380Y-93295357D01*
X102655714Y-94485833D02*
X103322380Y-94485833D01*
X102274761Y-94723928D02*
X102989047Y-94962023D01*
X102989047Y-94342976D01*
X102322380Y-94057261D02*
X102322380Y-93390595D01*
X103322380Y-93819166D01*
X102322380Y-92819166D02*
X102322380Y-92723928D01*
X102370000Y-92628690D01*
X102417619Y-92581071D01*
X102512857Y-92533452D01*
X102703333Y-92485833D01*
X102941428Y-92485833D01*
X103131904Y-92533452D01*
X103227142Y-92581071D01*
X103274761Y-92628690D01*
X103322380Y-92723928D01*
X103322380Y-92819166D01*
X103274761Y-92914404D01*
X103227142Y-92962023D01*
X103131904Y-93009642D01*
X102941428Y-93057261D01*
X102703333Y-93057261D01*
X102512857Y-93009642D01*
X102417619Y-92962023D01*
X102370000Y-92914404D01*
X102322380Y-92819166D01*
X103322380Y-92057261D02*
X102322380Y-92057261D01*
X103322380Y-91485833D02*
X102750952Y-91914404D01*
X102322380Y-91485833D02*
X102893809Y-92057261D01*
X104957619Y-94962023D02*
X104910000Y-94914404D01*
X104862380Y-94819166D01*
X104862380Y-94581071D01*
X104910000Y-94485833D01*
X104957619Y-94438214D01*
X105052857Y-94390595D01*
X105148095Y-94390595D01*
X105290952Y-94438214D01*
X105862380Y-95009642D01*
X105862380Y-94390595D01*
X104957619Y-94009642D02*
X104910000Y-93962023D01*
X104862380Y-93866785D01*
X104862380Y-93628690D01*
X104910000Y-93533452D01*
X104957619Y-93485833D01*
X105052857Y-93438214D01*
X105148095Y-93438214D01*
X105290952Y-93485833D01*
X105862380Y-94057261D01*
X105862380Y-93438214D01*
X104862380Y-92819166D02*
X104862380Y-92723928D01*
X104910000Y-92628690D01*
X104957619Y-92581071D01*
X105052857Y-92533452D01*
X105243333Y-92485833D01*
X105481428Y-92485833D01*
X105671904Y-92533452D01*
X105767142Y-92581071D01*
X105814761Y-92628690D01*
X105862380Y-92723928D01*
X105862380Y-92819166D01*
X105814761Y-92914404D01*
X105767142Y-92962023D01*
X105671904Y-93009642D01*
X105481428Y-93057261D01*
X105243333Y-93057261D01*
X105052857Y-93009642D01*
X104957619Y-92962023D01*
X104910000Y-92914404D01*
X104862380Y-92819166D01*
X105862380Y-92057261D02*
X104862380Y-92057261D01*
X105862380Y-91485833D02*
X105290952Y-91914404D01*
X104862380Y-91485833D02*
X105433809Y-92057261D01*
X107735714Y-94485833D02*
X108402380Y-94485833D01*
X107354761Y-94723928D02*
X108069047Y-94962023D01*
X108069047Y-94342976D01*
X107402380Y-94057261D02*
X107402380Y-93390595D01*
X108402380Y-93819166D01*
X108402380Y-93009642D02*
X107402380Y-93009642D01*
X108402380Y-92438214D02*
X107830952Y-92866785D01*
X107402380Y-92438214D02*
X107973809Y-93009642D01*
X110037619Y-94962023D02*
X109990000Y-94914404D01*
X109942380Y-94819166D01*
X109942380Y-94581071D01*
X109990000Y-94485833D01*
X110037619Y-94438214D01*
X110132857Y-94390595D01*
X110228095Y-94390595D01*
X110370952Y-94438214D01*
X110942380Y-95009642D01*
X110942380Y-94390595D01*
X109942380Y-93771547D02*
X109942380Y-93676309D01*
X109990000Y-93581071D01*
X110037619Y-93533452D01*
X110132857Y-93485833D01*
X110323333Y-93438214D01*
X110561428Y-93438214D01*
X110751904Y-93485833D01*
X110847142Y-93533452D01*
X110894761Y-93581071D01*
X110942380Y-93676309D01*
X110942380Y-93771547D01*
X110894761Y-93866785D01*
X110847142Y-93914404D01*
X110751904Y-93962023D01*
X110561428Y-94009642D01*
X110323333Y-94009642D01*
X110132857Y-93962023D01*
X110037619Y-93914404D01*
X109990000Y-93866785D01*
X109942380Y-93771547D01*
X110942380Y-93009642D02*
X109942380Y-93009642D01*
X110942380Y-92438214D02*
X110370952Y-92866785D01*
X109942380Y-92438214D02*
X110513809Y-93009642D01*
X113482380Y-94390595D02*
X113482380Y-94962023D01*
X113482380Y-94676309D02*
X112482380Y-94676309D01*
X112625238Y-94771547D01*
X112720476Y-94866785D01*
X112768095Y-94962023D01*
X112482380Y-93771547D02*
X112482380Y-93676309D01*
X112530000Y-93581071D01*
X112577619Y-93533452D01*
X112672857Y-93485833D01*
X112863333Y-93438214D01*
X113101428Y-93438214D01*
X113291904Y-93485833D01*
X113387142Y-93533452D01*
X113434761Y-93581071D01*
X113482380Y-93676309D01*
X113482380Y-93771547D01*
X113434761Y-93866785D01*
X113387142Y-93914404D01*
X113291904Y-93962023D01*
X113101428Y-94009642D01*
X112863333Y-94009642D01*
X112672857Y-93962023D01*
X112577619Y-93914404D01*
X112530000Y-93866785D01*
X112482380Y-93771547D01*
X113482380Y-93009642D02*
X112482380Y-93009642D01*
X113482380Y-92438214D02*
X112910952Y-92866785D01*
X112482380Y-92438214D02*
X113053809Y-93009642D01*
X115355714Y-94485833D02*
X116022380Y-94485833D01*
X114974761Y-94723928D02*
X115689047Y-94962023D01*
X115689047Y-94342976D01*
X115927142Y-93962023D02*
X115974761Y-93914404D01*
X116022380Y-93962023D01*
X115974761Y-94009642D01*
X115927142Y-93962023D01*
X116022380Y-93962023D01*
X115022380Y-93581071D02*
X115022380Y-92914404D01*
X116022380Y-93342976D01*
X116022380Y-92533452D02*
X115022380Y-92533452D01*
X116022380Y-91962023D02*
X115450952Y-92390595D01*
X115022380Y-91962023D02*
X115593809Y-92533452D01*
X117562380Y-95009642D02*
X117562380Y-94390595D01*
X117943333Y-94723928D01*
X117943333Y-94581071D01*
X117990952Y-94485833D01*
X118038571Y-94438214D01*
X118133809Y-94390595D01*
X118371904Y-94390595D01*
X118467142Y-94438214D01*
X118514761Y-94485833D01*
X118562380Y-94581071D01*
X118562380Y-94866785D01*
X118514761Y-94962023D01*
X118467142Y-95009642D01*
X118467142Y-93962023D02*
X118514761Y-93914404D01*
X118562380Y-93962023D01*
X118514761Y-94009642D01*
X118467142Y-93962023D01*
X118562380Y-93962023D01*
X117562380Y-93581071D02*
X117562380Y-92962023D01*
X117943333Y-93295357D01*
X117943333Y-93152500D01*
X117990952Y-93057261D01*
X118038571Y-93009642D01*
X118133809Y-92962023D01*
X118371904Y-92962023D01*
X118467142Y-93009642D01*
X118514761Y-93057261D01*
X118562380Y-93152500D01*
X118562380Y-93438214D01*
X118514761Y-93533452D01*
X118467142Y-93581071D01*
X118562380Y-92533452D02*
X117562380Y-92533452D01*
X118562380Y-91962023D02*
X117990952Y-92390595D01*
X117562380Y-91962023D02*
X118133809Y-92533452D01*
X120197619Y-94962023D02*
X120150000Y-94914404D01*
X120102380Y-94819166D01*
X120102380Y-94581071D01*
X120150000Y-94485833D01*
X120197619Y-94438214D01*
X120292857Y-94390595D01*
X120388095Y-94390595D01*
X120530952Y-94438214D01*
X121102380Y-95009642D01*
X121102380Y-94390595D01*
X121007142Y-93962023D02*
X121054761Y-93914404D01*
X121102380Y-93962023D01*
X121054761Y-94009642D01*
X121007142Y-93962023D01*
X121102380Y-93962023D01*
X120197619Y-93533452D02*
X120150000Y-93485833D01*
X120102380Y-93390595D01*
X120102380Y-93152500D01*
X120150000Y-93057261D01*
X120197619Y-93009642D01*
X120292857Y-92962023D01*
X120388095Y-92962023D01*
X120530952Y-93009642D01*
X121102380Y-93581071D01*
X121102380Y-92962023D01*
X121102380Y-92533452D02*
X120102380Y-92533452D01*
X121102380Y-91962023D02*
X120530952Y-92390595D01*
X120102380Y-91962023D02*
X120673809Y-92533452D01*
X122737619Y-94962023D02*
X122690000Y-94914404D01*
X122642380Y-94819166D01*
X122642380Y-94581071D01*
X122690000Y-94485833D01*
X122737619Y-94438214D01*
X122832857Y-94390595D01*
X122928095Y-94390595D01*
X123070952Y-94438214D01*
X123642380Y-95009642D01*
X123642380Y-94390595D01*
X123642380Y-93962023D02*
X122642380Y-93962023D01*
X123642380Y-93390595D02*
X123070952Y-93819166D01*
X122642380Y-93390595D02*
X123213809Y-93962023D01*
X126182380Y-94390595D02*
X126182380Y-94962023D01*
X126182380Y-94676309D02*
X125182380Y-94676309D01*
X125325238Y-94771547D01*
X125420476Y-94866785D01*
X125468095Y-94962023D01*
X126182380Y-93962023D02*
X125182380Y-93962023D01*
X126182380Y-93390595D02*
X125610952Y-93819166D01*
X125182380Y-93390595D02*
X125753809Y-93962023D01*
X127722380Y-94485833D02*
X127722380Y-94676309D01*
X127770000Y-94771547D01*
X127817619Y-94819166D01*
X127960476Y-94914404D01*
X128150952Y-94962023D01*
X128531904Y-94962023D01*
X128627142Y-94914404D01*
X128674761Y-94866785D01*
X128722380Y-94771547D01*
X128722380Y-94581071D01*
X128674761Y-94485833D01*
X128627142Y-94438214D01*
X128531904Y-94390595D01*
X128293809Y-94390595D01*
X128198571Y-94438214D01*
X128150952Y-94485833D01*
X128103333Y-94581071D01*
X128103333Y-94771547D01*
X128150952Y-94866785D01*
X128198571Y-94914404D01*
X128293809Y-94962023D01*
X128150952Y-93819166D02*
X128103333Y-93914404D01*
X128055714Y-93962023D01*
X127960476Y-94009642D01*
X127912857Y-94009642D01*
X127817619Y-93962023D01*
X127770000Y-93914404D01*
X127722380Y-93819166D01*
X127722380Y-93628690D01*
X127770000Y-93533452D01*
X127817619Y-93485833D01*
X127912857Y-93438214D01*
X127960476Y-93438214D01*
X128055714Y-93485833D01*
X128103333Y-93533452D01*
X128150952Y-93628690D01*
X128150952Y-93819166D01*
X128198571Y-93914404D01*
X128246190Y-93962023D01*
X128341428Y-94009642D01*
X128531904Y-94009642D01*
X128627142Y-93962023D01*
X128674761Y-93914404D01*
X128722380Y-93819166D01*
X128722380Y-93628690D01*
X128674761Y-93533452D01*
X128627142Y-93485833D01*
X128531904Y-93438214D01*
X128341428Y-93438214D01*
X128246190Y-93485833D01*
X128198571Y-93533452D01*
X128150952Y-93628690D01*
X127722380Y-92819166D02*
X127722380Y-92723928D01*
X127770000Y-92628690D01*
X127817619Y-92581071D01*
X127912857Y-92533452D01*
X128103333Y-92485833D01*
X128341428Y-92485833D01*
X128531904Y-92533452D01*
X128627142Y-92581071D01*
X128674761Y-92628690D01*
X128722380Y-92723928D01*
X128722380Y-92819166D01*
X128674761Y-92914404D01*
X128627142Y-92962023D01*
X128531904Y-93009642D01*
X128341428Y-93057261D01*
X128103333Y-93057261D01*
X127912857Y-93009642D01*
X127817619Y-92962023D01*
X127770000Y-92914404D01*
X127722380Y-92819166D01*
X128722380Y-91485833D02*
X128246190Y-91819166D01*
X128722380Y-92057261D02*
X127722380Y-92057261D01*
X127722380Y-91676309D01*
X127770000Y-91581071D01*
X127817619Y-91533452D01*
X127912857Y-91485833D01*
X128055714Y-91485833D01*
X128150952Y-91533452D01*
X128198571Y-91581071D01*
X128246190Y-91676309D01*
X128246190Y-92057261D01*
X130262380Y-94438214D02*
X130262380Y-94914404D01*
X130738571Y-94962023D01*
X130690952Y-94914404D01*
X130643333Y-94819166D01*
X130643333Y-94581071D01*
X130690952Y-94485833D01*
X130738571Y-94438214D01*
X130833809Y-94390595D01*
X131071904Y-94390595D01*
X131167142Y-94438214D01*
X131214761Y-94485833D01*
X131262380Y-94581071D01*
X131262380Y-94819166D01*
X131214761Y-94914404D01*
X131167142Y-94962023D01*
X131262380Y-93438214D02*
X131262380Y-94009642D01*
X131262380Y-93723928D02*
X130262380Y-93723928D01*
X130405238Y-93819166D01*
X130500476Y-93914404D01*
X130548095Y-94009642D01*
X130262380Y-92819166D02*
X130262380Y-92723928D01*
X130310000Y-92628690D01*
X130357619Y-92581071D01*
X130452857Y-92533452D01*
X130643333Y-92485833D01*
X130881428Y-92485833D01*
X131071904Y-92533452D01*
X131167142Y-92581071D01*
X131214761Y-92628690D01*
X131262380Y-92723928D01*
X131262380Y-92819166D01*
X131214761Y-92914404D01*
X131167142Y-92962023D01*
X131071904Y-93009642D01*
X130881428Y-93057261D01*
X130643333Y-93057261D01*
X130452857Y-93009642D01*
X130357619Y-92962023D01*
X130310000Y-92914404D01*
X130262380Y-92819166D01*
X131262380Y-91485833D02*
X130786190Y-91819166D01*
X131262380Y-92057261D02*
X130262380Y-92057261D01*
X130262380Y-91676309D01*
X130310000Y-91581071D01*
X130357619Y-91533452D01*
X130452857Y-91485833D01*
X130595714Y-91485833D01*
X130690952Y-91533452D01*
X130738571Y-91581071D01*
X130786190Y-91676309D01*
X130786190Y-92057261D01*
X133135714Y-94485833D02*
X133802380Y-94485833D01*
X132754761Y-94723928D02*
X133469047Y-94962023D01*
X133469047Y-94342976D01*
X132802380Y-94057261D02*
X132802380Y-93390595D01*
X133802380Y-93819166D01*
X132802380Y-92819166D02*
X132802380Y-92723928D01*
X132850000Y-92628690D01*
X132897619Y-92581071D01*
X132992857Y-92533452D01*
X133183333Y-92485833D01*
X133421428Y-92485833D01*
X133611904Y-92533452D01*
X133707142Y-92581071D01*
X133754761Y-92628690D01*
X133802380Y-92723928D01*
X133802380Y-92819166D01*
X133754761Y-92914404D01*
X133707142Y-92962023D01*
X133611904Y-93009642D01*
X133421428Y-93057261D01*
X133183333Y-93057261D01*
X132992857Y-93009642D01*
X132897619Y-92962023D01*
X132850000Y-92914404D01*
X132802380Y-92819166D01*
X133802380Y-91485833D02*
X133326190Y-91819166D01*
X133802380Y-92057261D02*
X132802380Y-92057261D01*
X132802380Y-91676309D01*
X132850000Y-91581071D01*
X132897619Y-91533452D01*
X132992857Y-91485833D01*
X133135714Y-91485833D01*
X133230952Y-91533452D01*
X133278571Y-91581071D01*
X133326190Y-91676309D01*
X133326190Y-92057261D01*
X135342380Y-95009642D02*
X135342380Y-94390595D01*
X135723333Y-94723928D01*
X135723333Y-94581071D01*
X135770952Y-94485833D01*
X135818571Y-94438214D01*
X135913809Y-94390595D01*
X136151904Y-94390595D01*
X136247142Y-94438214D01*
X136294761Y-94485833D01*
X136342380Y-94581071D01*
X136342380Y-94866785D01*
X136294761Y-94962023D01*
X136247142Y-95009642D01*
X135342380Y-94057261D02*
X135342380Y-93438214D01*
X135723333Y-93771547D01*
X135723333Y-93628690D01*
X135770952Y-93533452D01*
X135818571Y-93485833D01*
X135913809Y-93438214D01*
X136151904Y-93438214D01*
X136247142Y-93485833D01*
X136294761Y-93533452D01*
X136342380Y-93628690D01*
X136342380Y-93914404D01*
X136294761Y-94009642D01*
X136247142Y-94057261D01*
X135342380Y-92819166D02*
X135342380Y-92723928D01*
X135390000Y-92628690D01*
X135437619Y-92581071D01*
X135532857Y-92533452D01*
X135723333Y-92485833D01*
X135961428Y-92485833D01*
X136151904Y-92533452D01*
X136247142Y-92581071D01*
X136294761Y-92628690D01*
X136342380Y-92723928D01*
X136342380Y-92819166D01*
X136294761Y-92914404D01*
X136247142Y-92962023D01*
X136151904Y-93009642D01*
X135961428Y-93057261D01*
X135723333Y-93057261D01*
X135532857Y-93009642D01*
X135437619Y-92962023D01*
X135390000Y-92914404D01*
X135342380Y-92819166D01*
X136342380Y-91485833D02*
X135866190Y-91819166D01*
X136342380Y-92057261D02*
X135342380Y-92057261D01*
X135342380Y-91676309D01*
X135390000Y-91581071D01*
X135437619Y-91533452D01*
X135532857Y-91485833D01*
X135675714Y-91485833D01*
X135770952Y-91533452D01*
X135818571Y-91581071D01*
X135866190Y-91676309D01*
X135866190Y-92057261D01*
X137977619Y-94962023D02*
X137930000Y-94914404D01*
X137882380Y-94819166D01*
X137882380Y-94581071D01*
X137930000Y-94485833D01*
X137977619Y-94438214D01*
X138072857Y-94390595D01*
X138168095Y-94390595D01*
X138310952Y-94438214D01*
X138882380Y-95009642D01*
X138882380Y-94390595D01*
X137882380Y-94057261D02*
X137882380Y-93390595D01*
X138882380Y-93819166D01*
X137882380Y-92819166D02*
X137882380Y-92723928D01*
X137930000Y-92628690D01*
X137977619Y-92581071D01*
X138072857Y-92533452D01*
X138263333Y-92485833D01*
X138501428Y-92485833D01*
X138691904Y-92533452D01*
X138787142Y-92581071D01*
X138834761Y-92628690D01*
X138882380Y-92723928D01*
X138882380Y-92819166D01*
X138834761Y-92914404D01*
X138787142Y-92962023D01*
X138691904Y-93009642D01*
X138501428Y-93057261D01*
X138263333Y-93057261D01*
X138072857Y-93009642D01*
X137977619Y-92962023D01*
X137930000Y-92914404D01*
X137882380Y-92819166D01*
X138882380Y-91485833D02*
X138406190Y-91819166D01*
X138882380Y-92057261D02*
X137882380Y-92057261D01*
X137882380Y-91676309D01*
X137930000Y-91581071D01*
X137977619Y-91533452D01*
X138072857Y-91485833D01*
X138215714Y-91485833D01*
X138310952Y-91533452D01*
X138358571Y-91581071D01*
X138406190Y-91676309D01*
X138406190Y-92057261D01*
X140517619Y-94962023D02*
X140470000Y-94914404D01*
X140422380Y-94819166D01*
X140422380Y-94581071D01*
X140470000Y-94485833D01*
X140517619Y-94438214D01*
X140612857Y-94390595D01*
X140708095Y-94390595D01*
X140850952Y-94438214D01*
X141422380Y-95009642D01*
X141422380Y-94390595D01*
X140517619Y-94009642D02*
X140470000Y-93962023D01*
X140422380Y-93866785D01*
X140422380Y-93628690D01*
X140470000Y-93533452D01*
X140517619Y-93485833D01*
X140612857Y-93438214D01*
X140708095Y-93438214D01*
X140850952Y-93485833D01*
X141422380Y-94057261D01*
X141422380Y-93438214D01*
X140422380Y-92819166D02*
X140422380Y-92723928D01*
X140470000Y-92628690D01*
X140517619Y-92581071D01*
X140612857Y-92533452D01*
X140803333Y-92485833D01*
X141041428Y-92485833D01*
X141231904Y-92533452D01*
X141327142Y-92581071D01*
X141374761Y-92628690D01*
X141422380Y-92723928D01*
X141422380Y-92819166D01*
X141374761Y-92914404D01*
X141327142Y-92962023D01*
X141231904Y-93009642D01*
X141041428Y-93057261D01*
X140803333Y-93057261D01*
X140612857Y-93009642D01*
X140517619Y-92962023D01*
X140470000Y-92914404D01*
X140422380Y-92819166D01*
X141422380Y-91485833D02*
X140946190Y-91819166D01*
X141422380Y-92057261D02*
X140422380Y-92057261D01*
X140422380Y-91676309D01*
X140470000Y-91581071D01*
X140517619Y-91533452D01*
X140612857Y-91485833D01*
X140755714Y-91485833D01*
X140850952Y-91533452D01*
X140898571Y-91581071D01*
X140946190Y-91676309D01*
X140946190Y-92057261D01*
X143057619Y-94962023D02*
X143010000Y-94914404D01*
X142962380Y-94819166D01*
X142962380Y-94581071D01*
X143010000Y-94485833D01*
X143057619Y-94438214D01*
X143152857Y-94390595D01*
X143248095Y-94390595D01*
X143390952Y-94438214D01*
X143962380Y-95009642D01*
X143962380Y-94390595D01*
X142962380Y-93771547D02*
X142962380Y-93676309D01*
X143010000Y-93581071D01*
X143057619Y-93533452D01*
X143152857Y-93485833D01*
X143343333Y-93438214D01*
X143581428Y-93438214D01*
X143771904Y-93485833D01*
X143867142Y-93533452D01*
X143914761Y-93581071D01*
X143962380Y-93676309D01*
X143962380Y-93771547D01*
X143914761Y-93866785D01*
X143867142Y-93914404D01*
X143771904Y-93962023D01*
X143581428Y-94009642D01*
X143343333Y-94009642D01*
X143152857Y-93962023D01*
X143057619Y-93914404D01*
X143010000Y-93866785D01*
X142962380Y-93771547D01*
X142962380Y-92819166D02*
X142962380Y-92723928D01*
X143010000Y-92628690D01*
X143057619Y-92581071D01*
X143152857Y-92533452D01*
X143343333Y-92485833D01*
X143581428Y-92485833D01*
X143771904Y-92533452D01*
X143867142Y-92581071D01*
X143914761Y-92628690D01*
X143962380Y-92723928D01*
X143962380Y-92819166D01*
X143914761Y-92914404D01*
X143867142Y-92962023D01*
X143771904Y-93009642D01*
X143581428Y-93057261D01*
X143343333Y-93057261D01*
X143152857Y-93009642D01*
X143057619Y-92962023D01*
X143010000Y-92914404D01*
X142962380Y-92819166D01*
X143962380Y-91485833D02*
X143486190Y-91819166D01*
X143962380Y-92057261D02*
X142962380Y-92057261D01*
X142962380Y-91676309D01*
X143010000Y-91581071D01*
X143057619Y-91533452D01*
X143152857Y-91485833D01*
X143295714Y-91485833D01*
X143390952Y-91533452D01*
X143438571Y-91581071D01*
X143486190Y-91676309D01*
X143486190Y-92057261D01*
X146502380Y-94390595D02*
X146502380Y-94962023D01*
X146502380Y-94676309D02*
X145502380Y-94676309D01*
X145645238Y-94771547D01*
X145740476Y-94866785D01*
X145788095Y-94962023D01*
X145502380Y-93771547D02*
X145502380Y-93676309D01*
X145550000Y-93581071D01*
X145597619Y-93533452D01*
X145692857Y-93485833D01*
X145883333Y-93438214D01*
X146121428Y-93438214D01*
X146311904Y-93485833D01*
X146407142Y-93533452D01*
X146454761Y-93581071D01*
X146502380Y-93676309D01*
X146502380Y-93771547D01*
X146454761Y-93866785D01*
X146407142Y-93914404D01*
X146311904Y-93962023D01*
X146121428Y-94009642D01*
X145883333Y-94009642D01*
X145692857Y-93962023D01*
X145597619Y-93914404D01*
X145550000Y-93866785D01*
X145502380Y-93771547D01*
X145502380Y-92819166D02*
X145502380Y-92723928D01*
X145550000Y-92628690D01*
X145597619Y-92581071D01*
X145692857Y-92533452D01*
X145883333Y-92485833D01*
X146121428Y-92485833D01*
X146311904Y-92533452D01*
X146407142Y-92581071D01*
X146454761Y-92628690D01*
X146502380Y-92723928D01*
X146502380Y-92819166D01*
X146454761Y-92914404D01*
X146407142Y-92962023D01*
X146311904Y-93009642D01*
X146121428Y-93057261D01*
X145883333Y-93057261D01*
X145692857Y-93009642D01*
X145597619Y-92962023D01*
X145550000Y-92914404D01*
X145502380Y-92819166D01*
X146502380Y-91485833D02*
X146026190Y-91819166D01*
X146502380Y-92057261D02*
X145502380Y-92057261D01*
X145502380Y-91676309D01*
X145550000Y-91581071D01*
X145597619Y-91533452D01*
X145692857Y-91485833D01*
X145835714Y-91485833D01*
X145930952Y-91533452D01*
X145978571Y-91581071D01*
X146026190Y-91676309D01*
X146026190Y-92057261D01*
X148375714Y-94485833D02*
X149042380Y-94485833D01*
X147994761Y-94723928D02*
X148709047Y-94962023D01*
X148709047Y-94342976D01*
X148042380Y-94057261D02*
X148042380Y-93390595D01*
X149042380Y-93819166D01*
X149042380Y-92438214D02*
X148566190Y-92771547D01*
X149042380Y-93009642D02*
X148042380Y-93009642D01*
X148042380Y-92628690D01*
X148090000Y-92533452D01*
X148137619Y-92485833D01*
X148232857Y-92438214D01*
X148375714Y-92438214D01*
X148470952Y-92485833D01*
X148518571Y-92533452D01*
X148566190Y-92628690D01*
X148566190Y-93009642D01*
D11*
%TO.C,J2*%
X99000000Y-96460000D02*
X99000000Y-101660000D01*
X147320000Y-96460000D02*
X99000000Y-96460000D01*
X149920000Y-101660000D02*
X99000000Y-101660000D01*
X147320000Y-96460000D02*
X147320000Y-99060000D01*
X147320000Y-99060000D02*
X149920000Y-99060000D01*
X149920000Y-99060000D02*
X149920000Y-101660000D01*
X148590000Y-96460000D02*
X149920000Y-96460000D01*
X149920000Y-96460000D02*
X149920000Y-97790000D01*
%TO.C,J1*%
X77410000Y-113090000D02*
X80070000Y-113090000D01*
X77410000Y-110490000D02*
X77410000Y-113090000D01*
X80070000Y-110490000D02*
X80070000Y-113090000D01*
X77410000Y-110490000D02*
X80070000Y-110490000D01*
X77410000Y-109220000D02*
X77410000Y-107890000D01*
X77410000Y-107890000D02*
X78740000Y-107890000D01*
%TO.C,R1*%
X158650000Y-123920000D02*
X158980000Y-123920000D01*
X158650000Y-117380000D02*
X158650000Y-123920000D01*
X158980000Y-117380000D02*
X158650000Y-117380000D01*
X161390000Y-123920000D02*
X161060000Y-123920000D01*
X161390000Y-117380000D02*
X161390000Y-123920000D01*
X161060000Y-117380000D02*
X161390000Y-117380000D01*
%TO.C,R2*%
X157250000Y-117380000D02*
X157580000Y-117380000D01*
X157580000Y-117380000D02*
X157580000Y-123920000D01*
X157580000Y-123920000D02*
X157250000Y-123920000D01*
X155170000Y-117380000D02*
X154840000Y-117380000D01*
X154840000Y-117380000D02*
X154840000Y-123920000D01*
X154840000Y-123920000D02*
X155170000Y-123920000D01*
%TO.C,R3*%
X153440000Y-117380000D02*
X153770000Y-117380000D01*
X153770000Y-117380000D02*
X153770000Y-123920000D01*
X153770000Y-123920000D02*
X153440000Y-123920000D01*
X151360000Y-117380000D02*
X151030000Y-117380000D01*
X151030000Y-117380000D02*
X151030000Y-123920000D01*
X151030000Y-123920000D02*
X151360000Y-123920000D01*
%TO.C,R4*%
X147220000Y-123920000D02*
X147550000Y-123920000D01*
X147220000Y-117380000D02*
X147220000Y-123920000D01*
X147550000Y-117380000D02*
X147220000Y-117380000D01*
X149960000Y-123920000D02*
X149630000Y-123920000D01*
X149960000Y-117380000D02*
X149960000Y-123920000D01*
X149630000Y-117380000D02*
X149960000Y-117380000D01*
%TO.C,R5*%
X143410000Y-123920000D02*
X143740000Y-123920000D01*
X143410000Y-117380000D02*
X143410000Y-123920000D01*
X143740000Y-117380000D02*
X143410000Y-117380000D01*
X146150000Y-123920000D02*
X145820000Y-123920000D01*
X146150000Y-117380000D02*
X146150000Y-123920000D01*
X145820000Y-117380000D02*
X146150000Y-117380000D01*
%TO.C,R6*%
X139930000Y-123920000D02*
X139600000Y-123920000D01*
X139600000Y-123920000D02*
X139600000Y-117380000D01*
X139600000Y-117380000D02*
X139930000Y-117380000D01*
X142010000Y-123920000D02*
X142340000Y-123920000D01*
X142340000Y-123920000D02*
X142340000Y-117380000D01*
X142340000Y-117380000D02*
X142010000Y-117380000D01*
%TO.C,R7*%
X136120000Y-123920000D02*
X135790000Y-123920000D01*
X135790000Y-123920000D02*
X135790000Y-117380000D01*
X135790000Y-117380000D02*
X136120000Y-117380000D01*
X138200000Y-123920000D02*
X138530000Y-123920000D01*
X138530000Y-123920000D02*
X138530000Y-117380000D01*
X138530000Y-117380000D02*
X138200000Y-117380000D01*
%TO.C,R8*%
X132310000Y-123920000D02*
X131980000Y-123920000D01*
X131980000Y-123920000D02*
X131980000Y-117380000D01*
X131980000Y-117380000D02*
X132310000Y-117380000D01*
X134390000Y-123920000D02*
X134720000Y-123920000D01*
X134720000Y-123920000D02*
X134720000Y-117380000D01*
X134720000Y-117380000D02*
X134390000Y-117380000D01*
%TO.C,R9*%
X128500000Y-123920000D02*
X128170000Y-123920000D01*
X128170000Y-123920000D02*
X128170000Y-117380000D01*
X128170000Y-117380000D02*
X128500000Y-117380000D01*
X130580000Y-123920000D02*
X130910000Y-123920000D01*
X130910000Y-123920000D02*
X130910000Y-117380000D01*
X130910000Y-117380000D02*
X130580000Y-117380000D01*
%TO.C,R10*%
X127100000Y-117380000D02*
X126770000Y-117380000D01*
X127100000Y-123920000D02*
X127100000Y-117380000D01*
X126770000Y-123920000D02*
X127100000Y-123920000D01*
X124360000Y-117380000D02*
X124690000Y-117380000D01*
X124360000Y-123920000D02*
X124360000Y-117380000D01*
X124690000Y-123920000D02*
X124360000Y-123920000D01*
%TO.C,R11*%
X120880000Y-123920000D02*
X120550000Y-123920000D01*
X120550000Y-123920000D02*
X120550000Y-117380000D01*
X120550000Y-117380000D02*
X120880000Y-117380000D01*
X122960000Y-123920000D02*
X123290000Y-123920000D01*
X123290000Y-123920000D02*
X123290000Y-117380000D01*
X123290000Y-117380000D02*
X122960000Y-117380000D01*
%TO.C,R12*%
X119480000Y-117380000D02*
X119150000Y-117380000D01*
X119480000Y-123920000D02*
X119480000Y-117380000D01*
X119150000Y-123920000D02*
X119480000Y-123920000D01*
X116740000Y-117380000D02*
X117070000Y-117380000D01*
X116740000Y-123920000D02*
X116740000Y-117380000D01*
X117070000Y-123920000D02*
X116740000Y-123920000D01*
%TO.C,R13*%
X115670000Y-117380000D02*
X115340000Y-117380000D01*
X115670000Y-123920000D02*
X115670000Y-117380000D01*
X115340000Y-123920000D02*
X115670000Y-123920000D01*
X112930000Y-117380000D02*
X113260000Y-117380000D01*
X112930000Y-123920000D02*
X112930000Y-117380000D01*
X113260000Y-123920000D02*
X112930000Y-123920000D01*
%TO.C,R14*%
X109450000Y-123920000D02*
X109120000Y-123920000D01*
X109120000Y-123920000D02*
X109120000Y-117380000D01*
X109120000Y-117380000D02*
X109450000Y-117380000D01*
X111530000Y-123920000D02*
X111860000Y-123920000D01*
X111860000Y-123920000D02*
X111860000Y-117380000D01*
X111860000Y-117380000D02*
X111530000Y-117380000D01*
%TO.C,R15*%
X105640000Y-123920000D02*
X105310000Y-123920000D01*
X105310000Y-123920000D02*
X105310000Y-117380000D01*
X105310000Y-117380000D02*
X105640000Y-117380000D01*
X107720000Y-123920000D02*
X108050000Y-123920000D01*
X108050000Y-123920000D02*
X108050000Y-117380000D01*
X108050000Y-117380000D02*
X107720000Y-117380000D01*
%TO.C,R16*%
X101500000Y-123920000D02*
X101830000Y-123920000D01*
X101500000Y-117380000D02*
X101500000Y-123920000D01*
X101830000Y-117380000D02*
X101500000Y-117380000D01*
X104240000Y-123920000D02*
X103910000Y-123920000D01*
X104240000Y-117380000D02*
X104240000Y-123920000D01*
X103910000Y-117380000D02*
X104240000Y-117380000D01*
%TO.C,R17*%
X97690000Y-123920000D02*
X98020000Y-123920000D01*
X97690000Y-117380000D02*
X97690000Y-123920000D01*
X98020000Y-117380000D02*
X97690000Y-117380000D01*
X100430000Y-123920000D02*
X100100000Y-123920000D01*
X100430000Y-117380000D02*
X100430000Y-123920000D01*
X100100000Y-117380000D02*
X100430000Y-117380000D01*
%TO.C,R18*%
X96290000Y-117380000D02*
X96620000Y-117380000D01*
X96620000Y-117380000D02*
X96620000Y-123920000D01*
X96620000Y-123920000D02*
X96290000Y-123920000D01*
X94210000Y-117380000D02*
X93880000Y-117380000D01*
X93880000Y-117380000D02*
X93880000Y-123920000D01*
X93880000Y-123920000D02*
X94210000Y-123920000D01*
%TO.C,R19*%
X90070000Y-123920000D02*
X90400000Y-123920000D01*
X90070000Y-117380000D02*
X90070000Y-123920000D01*
X90400000Y-117380000D02*
X90070000Y-117380000D01*
X92810000Y-123920000D02*
X92480000Y-123920000D01*
X92810000Y-117380000D02*
X92810000Y-123920000D01*
X92480000Y-117380000D02*
X92810000Y-117380000D01*
%TO.C,R20*%
X86260000Y-123920000D02*
X86590000Y-123920000D01*
X86260000Y-117380000D02*
X86260000Y-123920000D01*
X86590000Y-117380000D02*
X86260000Y-117380000D01*
X89000000Y-123920000D02*
X88670000Y-123920000D01*
X89000000Y-117380000D02*
X89000000Y-123920000D01*
X88670000Y-117380000D02*
X89000000Y-117380000D01*
%TO.C,J2*%
D10*
X150372380Y-99393333D02*
X151086666Y-99393333D01*
X151229523Y-99440952D01*
X151324761Y-99536190D01*
X151372380Y-99679047D01*
X151372380Y-99774285D01*
X150467619Y-98964761D02*
X150420000Y-98917142D01*
X150372380Y-98821904D01*
X150372380Y-98583809D01*
X150420000Y-98488571D01*
X150467619Y-98440952D01*
X150562857Y-98393333D01*
X150658095Y-98393333D01*
X150800952Y-98440952D01*
X151372380Y-99012380D01*
X151372380Y-98393333D01*
%TO.C,J1*%
X78406666Y-106342380D02*
X78406666Y-107056666D01*
X78359047Y-107199523D01*
X78263809Y-107294761D01*
X78120952Y-107342380D01*
X78025714Y-107342380D01*
X79406666Y-107342380D02*
X78835238Y-107342380D01*
X79120952Y-107342380D02*
X79120952Y-106342380D01*
X79025714Y-106485238D01*
X78930476Y-106580476D01*
X78835238Y-106628095D01*
%TO.C,R1*%
X160472380Y-120816666D02*
X159996190Y-121150000D01*
X160472380Y-121388095D02*
X159472380Y-121388095D01*
X159472380Y-121007142D01*
X159520000Y-120911904D01*
X159567619Y-120864285D01*
X159662857Y-120816666D01*
X159805714Y-120816666D01*
X159900952Y-120864285D01*
X159948571Y-120911904D01*
X159996190Y-121007142D01*
X159996190Y-121388095D01*
X160472380Y-119864285D02*
X160472380Y-120435714D01*
X160472380Y-120150000D02*
X159472380Y-120150000D01*
X159615238Y-120245238D01*
X159710476Y-120340476D01*
X159758095Y-120435714D01*
%TO.C,R2*%
X156662380Y-120816666D02*
X156186190Y-121150000D01*
X156662380Y-121388095D02*
X155662380Y-121388095D01*
X155662380Y-121007142D01*
X155710000Y-120911904D01*
X155757619Y-120864285D01*
X155852857Y-120816666D01*
X155995714Y-120816666D01*
X156090952Y-120864285D01*
X156138571Y-120911904D01*
X156186190Y-121007142D01*
X156186190Y-121388095D01*
X155757619Y-120435714D02*
X155710000Y-120388095D01*
X155662380Y-120292857D01*
X155662380Y-120054761D01*
X155710000Y-119959523D01*
X155757619Y-119911904D01*
X155852857Y-119864285D01*
X155948095Y-119864285D01*
X156090952Y-119911904D01*
X156662380Y-120483333D01*
X156662380Y-119864285D01*
%TO.C,R3*%
X152852380Y-120816666D02*
X152376190Y-121150000D01*
X152852380Y-121388095D02*
X151852380Y-121388095D01*
X151852380Y-121007142D01*
X151900000Y-120911904D01*
X151947619Y-120864285D01*
X152042857Y-120816666D01*
X152185714Y-120816666D01*
X152280952Y-120864285D01*
X152328571Y-120911904D01*
X152376190Y-121007142D01*
X152376190Y-121388095D01*
X151852380Y-120483333D02*
X151852380Y-119864285D01*
X152233333Y-120197619D01*
X152233333Y-120054761D01*
X152280952Y-119959523D01*
X152328571Y-119911904D01*
X152423809Y-119864285D01*
X152661904Y-119864285D01*
X152757142Y-119911904D01*
X152804761Y-119959523D01*
X152852380Y-120054761D01*
X152852380Y-120340476D01*
X152804761Y-120435714D01*
X152757142Y-120483333D01*
%TO.C,R4*%
X149042380Y-120816666D02*
X148566190Y-121150000D01*
X149042380Y-121388095D02*
X148042380Y-121388095D01*
X148042380Y-121007142D01*
X148090000Y-120911904D01*
X148137619Y-120864285D01*
X148232857Y-120816666D01*
X148375714Y-120816666D01*
X148470952Y-120864285D01*
X148518571Y-120911904D01*
X148566190Y-121007142D01*
X148566190Y-121388095D01*
X148375714Y-119959523D02*
X149042380Y-119959523D01*
X147994761Y-120197619D02*
X148709047Y-120435714D01*
X148709047Y-119816666D01*
%TO.C,R5*%
X145232380Y-120816666D02*
X144756190Y-121150000D01*
X145232380Y-121388095D02*
X144232380Y-121388095D01*
X144232380Y-121007142D01*
X144280000Y-120911904D01*
X144327619Y-120864285D01*
X144422857Y-120816666D01*
X144565714Y-120816666D01*
X144660952Y-120864285D01*
X144708571Y-120911904D01*
X144756190Y-121007142D01*
X144756190Y-121388095D01*
X144232380Y-119911904D02*
X144232380Y-120388095D01*
X144708571Y-120435714D01*
X144660952Y-120388095D01*
X144613333Y-120292857D01*
X144613333Y-120054761D01*
X144660952Y-119959523D01*
X144708571Y-119911904D01*
X144803809Y-119864285D01*
X145041904Y-119864285D01*
X145137142Y-119911904D01*
X145184761Y-119959523D01*
X145232380Y-120054761D01*
X145232380Y-120292857D01*
X145184761Y-120388095D01*
X145137142Y-120435714D01*
%TO.C,R6*%
X141422380Y-120816666D02*
X140946190Y-121150000D01*
X141422380Y-121388095D02*
X140422380Y-121388095D01*
X140422380Y-121007142D01*
X140470000Y-120911904D01*
X140517619Y-120864285D01*
X140612857Y-120816666D01*
X140755714Y-120816666D01*
X140850952Y-120864285D01*
X140898571Y-120911904D01*
X140946190Y-121007142D01*
X140946190Y-121388095D01*
X140422380Y-119959523D02*
X140422380Y-120150000D01*
X140470000Y-120245238D01*
X140517619Y-120292857D01*
X140660476Y-120388095D01*
X140850952Y-120435714D01*
X141231904Y-120435714D01*
X141327142Y-120388095D01*
X141374761Y-120340476D01*
X141422380Y-120245238D01*
X141422380Y-120054761D01*
X141374761Y-119959523D01*
X141327142Y-119911904D01*
X141231904Y-119864285D01*
X140993809Y-119864285D01*
X140898571Y-119911904D01*
X140850952Y-119959523D01*
X140803333Y-120054761D01*
X140803333Y-120245238D01*
X140850952Y-120340476D01*
X140898571Y-120388095D01*
X140993809Y-120435714D01*
%TO.C,R7*%
X137612380Y-120816666D02*
X137136190Y-121150000D01*
X137612380Y-121388095D02*
X136612380Y-121388095D01*
X136612380Y-121007142D01*
X136660000Y-120911904D01*
X136707619Y-120864285D01*
X136802857Y-120816666D01*
X136945714Y-120816666D01*
X137040952Y-120864285D01*
X137088571Y-120911904D01*
X137136190Y-121007142D01*
X137136190Y-121388095D01*
X136612380Y-120483333D02*
X136612380Y-119816666D01*
X137612380Y-120245238D01*
%TO.C,R8*%
X133802380Y-120816666D02*
X133326190Y-121150000D01*
X133802380Y-121388095D02*
X132802380Y-121388095D01*
X132802380Y-121007142D01*
X132850000Y-120911904D01*
X132897619Y-120864285D01*
X132992857Y-120816666D01*
X133135714Y-120816666D01*
X133230952Y-120864285D01*
X133278571Y-120911904D01*
X133326190Y-121007142D01*
X133326190Y-121388095D01*
X133230952Y-120245238D02*
X133183333Y-120340476D01*
X133135714Y-120388095D01*
X133040476Y-120435714D01*
X132992857Y-120435714D01*
X132897619Y-120388095D01*
X132850000Y-120340476D01*
X132802380Y-120245238D01*
X132802380Y-120054761D01*
X132850000Y-119959523D01*
X132897619Y-119911904D01*
X132992857Y-119864285D01*
X133040476Y-119864285D01*
X133135714Y-119911904D01*
X133183333Y-119959523D01*
X133230952Y-120054761D01*
X133230952Y-120245238D01*
X133278571Y-120340476D01*
X133326190Y-120388095D01*
X133421428Y-120435714D01*
X133611904Y-120435714D01*
X133707142Y-120388095D01*
X133754761Y-120340476D01*
X133802380Y-120245238D01*
X133802380Y-120054761D01*
X133754761Y-119959523D01*
X133707142Y-119911904D01*
X133611904Y-119864285D01*
X133421428Y-119864285D01*
X133326190Y-119911904D01*
X133278571Y-119959523D01*
X133230952Y-120054761D01*
%TO.C,R9*%
X129992380Y-120816666D02*
X129516190Y-121150000D01*
X129992380Y-121388095D02*
X128992380Y-121388095D01*
X128992380Y-121007142D01*
X129040000Y-120911904D01*
X129087619Y-120864285D01*
X129182857Y-120816666D01*
X129325714Y-120816666D01*
X129420952Y-120864285D01*
X129468571Y-120911904D01*
X129516190Y-121007142D01*
X129516190Y-121388095D01*
X129992380Y-120340476D02*
X129992380Y-120150000D01*
X129944761Y-120054761D01*
X129897142Y-120007142D01*
X129754285Y-119911904D01*
X129563809Y-119864285D01*
X129182857Y-119864285D01*
X129087619Y-119911904D01*
X129040000Y-119959523D01*
X128992380Y-120054761D01*
X128992380Y-120245238D01*
X129040000Y-120340476D01*
X129087619Y-120388095D01*
X129182857Y-120435714D01*
X129420952Y-120435714D01*
X129516190Y-120388095D01*
X129563809Y-120340476D01*
X129611428Y-120245238D01*
X129611428Y-120054761D01*
X129563809Y-119959523D01*
X129516190Y-119911904D01*
X129420952Y-119864285D01*
%TO.C,R10*%
X126182380Y-121292857D02*
X125706190Y-121626190D01*
X126182380Y-121864285D02*
X125182380Y-121864285D01*
X125182380Y-121483333D01*
X125230000Y-121388095D01*
X125277619Y-121340476D01*
X125372857Y-121292857D01*
X125515714Y-121292857D01*
X125610952Y-121340476D01*
X125658571Y-121388095D01*
X125706190Y-121483333D01*
X125706190Y-121864285D01*
X126182380Y-120340476D02*
X126182380Y-120911904D01*
X126182380Y-120626190D02*
X125182380Y-120626190D01*
X125325238Y-120721428D01*
X125420476Y-120816666D01*
X125468095Y-120911904D01*
X125182380Y-119721428D02*
X125182380Y-119626190D01*
X125230000Y-119530952D01*
X125277619Y-119483333D01*
X125372857Y-119435714D01*
X125563333Y-119388095D01*
X125801428Y-119388095D01*
X125991904Y-119435714D01*
X126087142Y-119483333D01*
X126134761Y-119530952D01*
X126182380Y-119626190D01*
X126182380Y-119721428D01*
X126134761Y-119816666D01*
X126087142Y-119864285D01*
X125991904Y-119911904D01*
X125801428Y-119959523D01*
X125563333Y-119959523D01*
X125372857Y-119911904D01*
X125277619Y-119864285D01*
X125230000Y-119816666D01*
X125182380Y-119721428D01*
%TO.C,R11*%
X122372380Y-121292857D02*
X121896190Y-121626190D01*
X122372380Y-121864285D02*
X121372380Y-121864285D01*
X121372380Y-121483333D01*
X121420000Y-121388095D01*
X121467619Y-121340476D01*
X121562857Y-121292857D01*
X121705714Y-121292857D01*
X121800952Y-121340476D01*
X121848571Y-121388095D01*
X121896190Y-121483333D01*
X121896190Y-121864285D01*
X122372380Y-120340476D02*
X122372380Y-120911904D01*
X122372380Y-120626190D02*
X121372380Y-120626190D01*
X121515238Y-120721428D01*
X121610476Y-120816666D01*
X121658095Y-120911904D01*
X122372380Y-119388095D02*
X122372380Y-119959523D01*
X122372380Y-119673809D02*
X121372380Y-119673809D01*
X121515238Y-119769047D01*
X121610476Y-119864285D01*
X121658095Y-119959523D01*
%TO.C,R12*%
X118562380Y-121292857D02*
X118086190Y-121626190D01*
X118562380Y-121864285D02*
X117562380Y-121864285D01*
X117562380Y-121483333D01*
X117610000Y-121388095D01*
X117657619Y-121340476D01*
X117752857Y-121292857D01*
X117895714Y-121292857D01*
X117990952Y-121340476D01*
X118038571Y-121388095D01*
X118086190Y-121483333D01*
X118086190Y-121864285D01*
X118562380Y-120340476D02*
X118562380Y-120911904D01*
X118562380Y-120626190D02*
X117562380Y-120626190D01*
X117705238Y-120721428D01*
X117800476Y-120816666D01*
X117848095Y-120911904D01*
X117657619Y-119959523D02*
X117610000Y-119911904D01*
X117562380Y-119816666D01*
X117562380Y-119578571D01*
X117610000Y-119483333D01*
X117657619Y-119435714D01*
X117752857Y-119388095D01*
X117848095Y-119388095D01*
X117990952Y-119435714D01*
X118562380Y-120007142D01*
X118562380Y-119388095D01*
%TO.C,R13*%
X114752380Y-121292857D02*
X114276190Y-121626190D01*
X114752380Y-121864285D02*
X113752380Y-121864285D01*
X113752380Y-121483333D01*
X113800000Y-121388095D01*
X113847619Y-121340476D01*
X113942857Y-121292857D01*
X114085714Y-121292857D01*
X114180952Y-121340476D01*
X114228571Y-121388095D01*
X114276190Y-121483333D01*
X114276190Y-121864285D01*
X114752380Y-120340476D02*
X114752380Y-120911904D01*
X114752380Y-120626190D02*
X113752380Y-120626190D01*
X113895238Y-120721428D01*
X113990476Y-120816666D01*
X114038095Y-120911904D01*
X113752380Y-120007142D02*
X113752380Y-119388095D01*
X114133333Y-119721428D01*
X114133333Y-119578571D01*
X114180952Y-119483333D01*
X114228571Y-119435714D01*
X114323809Y-119388095D01*
X114561904Y-119388095D01*
X114657142Y-119435714D01*
X114704761Y-119483333D01*
X114752380Y-119578571D01*
X114752380Y-119864285D01*
X114704761Y-119959523D01*
X114657142Y-120007142D01*
%TO.C,R14*%
X110942380Y-121292857D02*
X110466190Y-121626190D01*
X110942380Y-121864285D02*
X109942380Y-121864285D01*
X109942380Y-121483333D01*
X109990000Y-121388095D01*
X110037619Y-121340476D01*
X110132857Y-121292857D01*
X110275714Y-121292857D01*
X110370952Y-121340476D01*
X110418571Y-121388095D01*
X110466190Y-121483333D01*
X110466190Y-121864285D01*
X110942380Y-120340476D02*
X110942380Y-120911904D01*
X110942380Y-120626190D02*
X109942380Y-120626190D01*
X110085238Y-120721428D01*
X110180476Y-120816666D01*
X110228095Y-120911904D01*
X110275714Y-119483333D02*
X110942380Y-119483333D01*
X109894761Y-119721428D02*
X110609047Y-119959523D01*
X110609047Y-119340476D01*
%TO.C,R15*%
X107132380Y-121292857D02*
X106656190Y-121626190D01*
X107132380Y-121864285D02*
X106132380Y-121864285D01*
X106132380Y-121483333D01*
X106180000Y-121388095D01*
X106227619Y-121340476D01*
X106322857Y-121292857D01*
X106465714Y-121292857D01*
X106560952Y-121340476D01*
X106608571Y-121388095D01*
X106656190Y-121483333D01*
X106656190Y-121864285D01*
X107132380Y-120340476D02*
X107132380Y-120911904D01*
X107132380Y-120626190D02*
X106132380Y-120626190D01*
X106275238Y-120721428D01*
X106370476Y-120816666D01*
X106418095Y-120911904D01*
X106132380Y-119435714D02*
X106132380Y-119911904D01*
X106608571Y-119959523D01*
X106560952Y-119911904D01*
X106513333Y-119816666D01*
X106513333Y-119578571D01*
X106560952Y-119483333D01*
X106608571Y-119435714D01*
X106703809Y-119388095D01*
X106941904Y-119388095D01*
X107037142Y-119435714D01*
X107084761Y-119483333D01*
X107132380Y-119578571D01*
X107132380Y-119816666D01*
X107084761Y-119911904D01*
X107037142Y-119959523D01*
%TO.C,R16*%
X103322380Y-121292857D02*
X102846190Y-121626190D01*
X103322380Y-121864285D02*
X102322380Y-121864285D01*
X102322380Y-121483333D01*
X102370000Y-121388095D01*
X102417619Y-121340476D01*
X102512857Y-121292857D01*
X102655714Y-121292857D01*
X102750952Y-121340476D01*
X102798571Y-121388095D01*
X102846190Y-121483333D01*
X102846190Y-121864285D01*
X103322380Y-120340476D02*
X103322380Y-120911904D01*
X103322380Y-120626190D02*
X102322380Y-120626190D01*
X102465238Y-120721428D01*
X102560476Y-120816666D01*
X102608095Y-120911904D01*
X102322380Y-119483333D02*
X102322380Y-119673809D01*
X102370000Y-119769047D01*
X102417619Y-119816666D01*
X102560476Y-119911904D01*
X102750952Y-119959523D01*
X103131904Y-119959523D01*
X103227142Y-119911904D01*
X103274761Y-119864285D01*
X103322380Y-119769047D01*
X103322380Y-119578571D01*
X103274761Y-119483333D01*
X103227142Y-119435714D01*
X103131904Y-119388095D01*
X102893809Y-119388095D01*
X102798571Y-119435714D01*
X102750952Y-119483333D01*
X102703333Y-119578571D01*
X102703333Y-119769047D01*
X102750952Y-119864285D01*
X102798571Y-119911904D01*
X102893809Y-119959523D01*
%TO.C,R17*%
X99512380Y-121292857D02*
X99036190Y-121626190D01*
X99512380Y-121864285D02*
X98512380Y-121864285D01*
X98512380Y-121483333D01*
X98560000Y-121388095D01*
X98607619Y-121340476D01*
X98702857Y-121292857D01*
X98845714Y-121292857D01*
X98940952Y-121340476D01*
X98988571Y-121388095D01*
X99036190Y-121483333D01*
X99036190Y-121864285D01*
X99512380Y-120340476D02*
X99512380Y-120911904D01*
X99512380Y-120626190D02*
X98512380Y-120626190D01*
X98655238Y-120721428D01*
X98750476Y-120816666D01*
X98798095Y-120911904D01*
X98512380Y-120007142D02*
X98512380Y-119340476D01*
X99512380Y-119769047D01*
%TO.C,R18*%
X95702380Y-121292857D02*
X95226190Y-121626190D01*
X95702380Y-121864285D02*
X94702380Y-121864285D01*
X94702380Y-121483333D01*
X94750000Y-121388095D01*
X94797619Y-121340476D01*
X94892857Y-121292857D01*
X95035714Y-121292857D01*
X95130952Y-121340476D01*
X95178571Y-121388095D01*
X95226190Y-121483333D01*
X95226190Y-121864285D01*
X95702380Y-120340476D02*
X95702380Y-120911904D01*
X95702380Y-120626190D02*
X94702380Y-120626190D01*
X94845238Y-120721428D01*
X94940476Y-120816666D01*
X94988095Y-120911904D01*
X95130952Y-119769047D02*
X95083333Y-119864285D01*
X95035714Y-119911904D01*
X94940476Y-119959523D01*
X94892857Y-119959523D01*
X94797619Y-119911904D01*
X94750000Y-119864285D01*
X94702380Y-119769047D01*
X94702380Y-119578571D01*
X94750000Y-119483333D01*
X94797619Y-119435714D01*
X94892857Y-119388095D01*
X94940476Y-119388095D01*
X95035714Y-119435714D01*
X95083333Y-119483333D01*
X95130952Y-119578571D01*
X95130952Y-119769047D01*
X95178571Y-119864285D01*
X95226190Y-119911904D01*
X95321428Y-119959523D01*
X95511904Y-119959523D01*
X95607142Y-119911904D01*
X95654761Y-119864285D01*
X95702380Y-119769047D01*
X95702380Y-119578571D01*
X95654761Y-119483333D01*
X95607142Y-119435714D01*
X95511904Y-119388095D01*
X95321428Y-119388095D01*
X95226190Y-119435714D01*
X95178571Y-119483333D01*
X95130952Y-119578571D01*
%TO.C,R19*%
X91892380Y-121292857D02*
X91416190Y-121626190D01*
X91892380Y-121864285D02*
X90892380Y-121864285D01*
X90892380Y-121483333D01*
X90940000Y-121388095D01*
X90987619Y-121340476D01*
X91082857Y-121292857D01*
X91225714Y-121292857D01*
X91320952Y-121340476D01*
X91368571Y-121388095D01*
X91416190Y-121483333D01*
X91416190Y-121864285D01*
X91892380Y-120340476D02*
X91892380Y-120911904D01*
X91892380Y-120626190D02*
X90892380Y-120626190D01*
X91035238Y-120721428D01*
X91130476Y-120816666D01*
X91178095Y-120911904D01*
X91892380Y-119864285D02*
X91892380Y-119673809D01*
X91844761Y-119578571D01*
X91797142Y-119530952D01*
X91654285Y-119435714D01*
X91463809Y-119388095D01*
X91082857Y-119388095D01*
X90987619Y-119435714D01*
X90940000Y-119483333D01*
X90892380Y-119578571D01*
X90892380Y-119769047D01*
X90940000Y-119864285D01*
X90987619Y-119911904D01*
X91082857Y-119959523D01*
X91320952Y-119959523D01*
X91416190Y-119911904D01*
X91463809Y-119864285D01*
X91511428Y-119769047D01*
X91511428Y-119578571D01*
X91463809Y-119483333D01*
X91416190Y-119435714D01*
X91320952Y-119388095D01*
%TO.C,R20*%
X88082380Y-121292857D02*
X87606190Y-121626190D01*
X88082380Y-121864285D02*
X87082380Y-121864285D01*
X87082380Y-121483333D01*
X87130000Y-121388095D01*
X87177619Y-121340476D01*
X87272857Y-121292857D01*
X87415714Y-121292857D01*
X87510952Y-121340476D01*
X87558571Y-121388095D01*
X87606190Y-121483333D01*
X87606190Y-121864285D01*
X87177619Y-120911904D02*
X87130000Y-120864285D01*
X87082380Y-120769047D01*
X87082380Y-120530952D01*
X87130000Y-120435714D01*
X87177619Y-120388095D01*
X87272857Y-120340476D01*
X87368095Y-120340476D01*
X87510952Y-120388095D01*
X88082380Y-120959523D01*
X88082380Y-120340476D01*
X87082380Y-119721428D02*
X87082380Y-119626190D01*
X87130000Y-119530952D01*
X87177619Y-119483333D01*
X87272857Y-119435714D01*
X87463333Y-119388095D01*
X87701428Y-119388095D01*
X87891904Y-119435714D01*
X87987142Y-119483333D01*
X88034761Y-119530952D01*
X88082380Y-119626190D01*
X88082380Y-119721428D01*
X88034761Y-119816666D01*
X87987142Y-119864285D01*
X87891904Y-119911904D01*
X87701428Y-119959523D01*
X87463333Y-119959523D01*
X87272857Y-119911904D01*
X87177619Y-119864285D01*
X87130000Y-119816666D01*
X87082380Y-119721428D01*
%TD*%
M02*
