%TF.GenerationSoftware,KiCad,Pcbnew,5.1.9-73d0e3b20d~88~ubuntu18.04.1*%
%TF.CreationDate,2021-04-04T15:33:15+02:00*%
%TF.ProjectId,resitor-substitution-board,72657369-746f-4722-9d73-756273746974,rev?*%
%TF.SameCoordinates,Original*%
%TF.FileFunction,Copper,L2,Bot*%
%TF.FilePolarity,Positive*%
%FSLAX46Y46*%
G04 Gerber Fmt 4.6, Leading zero omitted, Abs format (unit mm)*
G04 Created by KiCad (PCBNEW 5.1.9-73d0e3b20d~88~ubuntu18.04.1) date 2021-04-04 15:33:15*
%MOMM*%
%LPD*%
G01*
G04 APERTURE LIST*
%TA.AperFunction,ComponentPad*%
%ADD10O,1.700000X1.700000*%
%TD*%
%TA.AperFunction,ComponentPad*%
%ADD11R,1.700000X1.700000*%
%TD*%
%TA.AperFunction,ComponentPad*%
%ADD12O,1.600000X1.600000*%
%TD*%
%TA.AperFunction,ComponentPad*%
%ADD13C,1.600000*%
%TD*%
%TA.AperFunction,Conductor*%
%ADD14C,0.250000*%
%TD*%
G04 APERTURE END LIST*
D10*
%TO.P,J2,40*%
%TO.N,Net-(J1-Pad1)*%
X100330000Y-100330000D03*
%TO.P,J2,39*%
%TO.N,Net-(J2-Pad39)*%
X100330000Y-97790000D03*
%TO.P,J2,38*%
%TO.N,Net-(J1-Pad1)*%
X102870000Y-100330000D03*
%TO.P,J2,37*%
%TO.N,Net-(J2-Pad37)*%
X102870000Y-97790000D03*
%TO.P,J2,36*%
%TO.N,Net-(J1-Pad1)*%
X105410000Y-100330000D03*
%TO.P,J2,35*%
%TO.N,Net-(J2-Pad35)*%
X105410000Y-97790000D03*
%TO.P,J2,34*%
%TO.N,Net-(J1-Pad1)*%
X107950000Y-100330000D03*
%TO.P,J2,33*%
%TO.N,Net-(J2-Pad33)*%
X107950000Y-97790000D03*
%TO.P,J2,32*%
%TO.N,Net-(J1-Pad1)*%
X110490000Y-100330000D03*
%TO.P,J2,31*%
%TO.N,Net-(J2-Pad31)*%
X110490000Y-97790000D03*
%TO.P,J2,30*%
%TO.N,Net-(J1-Pad1)*%
X113030000Y-100330000D03*
%TO.P,J2,29*%
%TO.N,Net-(J2-Pad29)*%
X113030000Y-97790000D03*
%TO.P,J2,28*%
%TO.N,Net-(J1-Pad1)*%
X115570000Y-100330000D03*
%TO.P,J2,27*%
%TO.N,Net-(J2-Pad27)*%
X115570000Y-97790000D03*
%TO.P,J2,26*%
%TO.N,Net-(J1-Pad1)*%
X118110000Y-100330000D03*
%TO.P,J2,25*%
%TO.N,Net-(J2-Pad25)*%
X118110000Y-97790000D03*
%TO.P,J2,24*%
%TO.N,Net-(J1-Pad1)*%
X120650000Y-100330000D03*
%TO.P,J2,23*%
%TO.N,Net-(J2-Pad23)*%
X120650000Y-97790000D03*
%TO.P,J2,22*%
%TO.N,Net-(J1-Pad1)*%
X123190000Y-100330000D03*
%TO.P,J2,21*%
%TO.N,Net-(J2-Pad21)*%
X123190000Y-97790000D03*
%TO.P,J2,20*%
%TO.N,Net-(J1-Pad1)*%
X125730000Y-100330000D03*
%TO.P,J2,19*%
%TO.N,Net-(J2-Pad19)*%
X125730000Y-97790000D03*
%TO.P,J2,18*%
%TO.N,Net-(J1-Pad1)*%
X128270000Y-100330000D03*
%TO.P,J2,17*%
%TO.N,Net-(J2-Pad17)*%
X128270000Y-97790000D03*
%TO.P,J2,16*%
%TO.N,Net-(J1-Pad1)*%
X130810000Y-100330000D03*
%TO.P,J2,15*%
%TO.N,Net-(J2-Pad15)*%
X130810000Y-97790000D03*
%TO.P,J2,14*%
%TO.N,Net-(J1-Pad1)*%
X133350000Y-100330000D03*
%TO.P,J2,13*%
%TO.N,Net-(J2-Pad13)*%
X133350000Y-97790000D03*
%TO.P,J2,12*%
%TO.N,Net-(J1-Pad1)*%
X135890000Y-100330000D03*
%TO.P,J2,11*%
%TO.N,Net-(J2-Pad11)*%
X135890000Y-97790000D03*
%TO.P,J2,10*%
%TO.N,Net-(J1-Pad1)*%
X138430000Y-100330000D03*
%TO.P,J2,9*%
%TO.N,Net-(J2-Pad9)*%
X138430000Y-97790000D03*
%TO.P,J2,8*%
%TO.N,Net-(J1-Pad1)*%
X140970000Y-100330000D03*
%TO.P,J2,7*%
%TO.N,Net-(J2-Pad7)*%
X140970000Y-97790000D03*
%TO.P,J2,6*%
%TO.N,Net-(J1-Pad1)*%
X143510000Y-100330000D03*
%TO.P,J2,5*%
%TO.N,Net-(J2-Pad5)*%
X143510000Y-97790000D03*
%TO.P,J2,4*%
%TO.N,Net-(J1-Pad1)*%
X146050000Y-100330000D03*
%TO.P,J2,3*%
%TO.N,Net-(J2-Pad3)*%
X146050000Y-97790000D03*
%TO.P,J2,2*%
%TO.N,Net-(J1-Pad1)*%
X148590000Y-100330000D03*
D11*
%TO.P,J2,1*%
%TO.N,Net-(J2-Pad1)*%
X148590000Y-97790000D03*
%TD*%
%TO.P,J1,1*%
%TO.N,Net-(J1-Pad1)*%
X78740000Y-109220000D03*
D10*
%TO.P,J1,2*%
%TO.N,Net-(J1-Pad2)*%
X78740000Y-111760000D03*
%TD*%
D12*
%TO.P,R1,2*%
%TO.N,Net-(J1-Pad2)*%
X160020000Y-124460000D03*
D13*
%TO.P,R1,1*%
%TO.N,Net-(J2-Pad1)*%
X160020000Y-116840000D03*
%TD*%
%TO.P,R2,1*%
%TO.N,Net-(J2-Pad3)*%
X156210000Y-116840000D03*
D12*
%TO.P,R2,2*%
%TO.N,Net-(J1-Pad2)*%
X156210000Y-124460000D03*
%TD*%
D13*
%TO.P,R3,1*%
%TO.N,Net-(J2-Pad5)*%
X152400000Y-116840000D03*
D12*
%TO.P,R3,2*%
%TO.N,Net-(J1-Pad2)*%
X152400000Y-124460000D03*
%TD*%
%TO.P,R4,2*%
%TO.N,Net-(J1-Pad2)*%
X148590000Y-124460000D03*
D13*
%TO.P,R4,1*%
%TO.N,Net-(J2-Pad7)*%
X148590000Y-116840000D03*
%TD*%
D12*
%TO.P,R5,2*%
%TO.N,Net-(J1-Pad2)*%
X144780000Y-124460000D03*
D13*
%TO.P,R5,1*%
%TO.N,Net-(J2-Pad9)*%
X144780000Y-116840000D03*
%TD*%
%TO.P,R6,1*%
%TO.N,Net-(J1-Pad2)*%
X140970000Y-124460000D03*
D12*
%TO.P,R6,2*%
%TO.N,Net-(J2-Pad11)*%
X140970000Y-116840000D03*
%TD*%
D13*
%TO.P,R7,1*%
%TO.N,Net-(J1-Pad2)*%
X137160000Y-124460000D03*
D12*
%TO.P,R7,2*%
%TO.N,Net-(J2-Pad13)*%
X137160000Y-116840000D03*
%TD*%
D13*
%TO.P,R8,1*%
%TO.N,Net-(J1-Pad2)*%
X133350000Y-124460000D03*
D12*
%TO.P,R8,2*%
%TO.N,Net-(J2-Pad15)*%
X133350000Y-116840000D03*
%TD*%
D13*
%TO.P,R9,1*%
%TO.N,Net-(J1-Pad2)*%
X129540000Y-124460000D03*
D12*
%TO.P,R9,2*%
%TO.N,Net-(J2-Pad17)*%
X129540000Y-116840000D03*
%TD*%
%TO.P,R10,2*%
%TO.N,Net-(J2-Pad19)*%
X125730000Y-116840000D03*
D13*
%TO.P,R10,1*%
%TO.N,Net-(J1-Pad2)*%
X125730000Y-124460000D03*
%TD*%
%TO.P,R11,1*%
%TO.N,Net-(J1-Pad2)*%
X121920000Y-124460000D03*
D12*
%TO.P,R11,2*%
%TO.N,Net-(J2-Pad21)*%
X121920000Y-116840000D03*
%TD*%
%TO.P,R12,2*%
%TO.N,Net-(J2-Pad23)*%
X118110000Y-116840000D03*
D13*
%TO.P,R12,1*%
%TO.N,Net-(J1-Pad2)*%
X118110000Y-124460000D03*
%TD*%
D12*
%TO.P,R13,2*%
%TO.N,Net-(J2-Pad25)*%
X114300000Y-116840000D03*
D13*
%TO.P,R13,1*%
%TO.N,Net-(J1-Pad2)*%
X114300000Y-124460000D03*
%TD*%
%TO.P,R14,1*%
%TO.N,Net-(J1-Pad2)*%
X110490000Y-124460000D03*
D12*
%TO.P,R14,2*%
%TO.N,Net-(J2-Pad27)*%
X110490000Y-116840000D03*
%TD*%
D13*
%TO.P,R15,1*%
%TO.N,Net-(J1-Pad2)*%
X106680000Y-124460000D03*
D12*
%TO.P,R15,2*%
%TO.N,Net-(J2-Pad29)*%
X106680000Y-116840000D03*
%TD*%
%TO.P,R16,2*%
%TO.N,Net-(J1-Pad2)*%
X102870000Y-124460000D03*
D13*
%TO.P,R16,1*%
%TO.N,Net-(J2-Pad31)*%
X102870000Y-116840000D03*
%TD*%
D12*
%TO.P,R17,2*%
%TO.N,Net-(J1-Pad2)*%
X99060000Y-124460000D03*
D13*
%TO.P,R17,1*%
%TO.N,Net-(J2-Pad33)*%
X99060000Y-116840000D03*
%TD*%
%TO.P,R18,1*%
%TO.N,Net-(J2-Pad35)*%
X95250000Y-116840000D03*
D12*
%TO.P,R18,2*%
%TO.N,Net-(J1-Pad2)*%
X95250000Y-124460000D03*
%TD*%
%TO.P,R19,2*%
%TO.N,Net-(J1-Pad2)*%
X91440000Y-124460000D03*
D13*
%TO.P,R19,1*%
%TO.N,Net-(J2-Pad37)*%
X91440000Y-116840000D03*
%TD*%
D12*
%TO.P,R20,2*%
%TO.N,Net-(J1-Pad2)*%
X87630000Y-124460000D03*
D13*
%TO.P,R20,1*%
%TO.N,Net-(J2-Pad39)*%
X87630000Y-116840000D03*
%TD*%
D14*
%TO.N,Net-(J1-Pad1)*%
X91440000Y-109220000D02*
X100330000Y-100330000D01*
X78740000Y-109220000D02*
X91440000Y-109220000D01*
X100330000Y-100330000D02*
X102870000Y-100330000D01*
X102870000Y-100330000D02*
X105410000Y-100330000D01*
X105410000Y-100330000D02*
X107950000Y-100330000D01*
X107950000Y-100330000D02*
X110490000Y-100330000D01*
X110490000Y-100330000D02*
X113030000Y-100330000D01*
X113030000Y-100330000D02*
X115570000Y-100330000D01*
X115570000Y-100330000D02*
X120650000Y-100330000D01*
X120650000Y-100330000D02*
X123190000Y-100330000D01*
X123190000Y-100330000D02*
X125730000Y-100330000D01*
X125730000Y-100330000D02*
X128270000Y-100330000D01*
X128270000Y-100330000D02*
X130810000Y-100330000D01*
X130810000Y-100330000D02*
X133350000Y-100330000D01*
X133350000Y-100330000D02*
X135890000Y-100330000D01*
X135890000Y-100330000D02*
X138430000Y-100330000D01*
X138430000Y-100330000D02*
X140970000Y-100330000D01*
X140970000Y-100330000D02*
X143510000Y-100330000D01*
X143510000Y-100330000D02*
X146050000Y-100330000D01*
X146050000Y-100330000D02*
X148590000Y-100330000D01*
%TD*%
M02*
