M48
; DRILL file {KiCad 5.1.9-73d0e3b20d~88~ubuntu18.04.1} date Sun Apr  4 15:33:18 2021
; FORMAT={-:-/ absolute / inch / decimal}
; #@! TF.CreationDate,2021-04-04T15:33:18+02:00
; #@! TF.GenerationSoftware,Kicad,Pcbnew,5.1.9-73d0e3b20d~88~ubuntu18.04.1
; #@! TF.FileFunction,Plated,1,2,PTH
FMAT,2
INCH
T1C0.0315
T2C0.0394
%
G90
G05
T1
X3.45Y-4.6
X3.45Y-4.9
X3.6Y-4.6
X3.6Y-4.9
X3.75Y-4.6
X3.75Y-4.9
X3.9Y-4.6
X3.9Y-4.9
X4.05Y-4.6
X4.05Y-4.9
X4.2Y-4.6
X4.2Y-4.9
X4.35Y-4.6
X4.35Y-4.9
X4.5Y-4.6
X4.5Y-4.9
X4.65Y-4.6
X4.65Y-4.9
X4.8Y-4.6
X4.8Y-4.9
X4.95Y-4.6
X4.95Y-4.9
X5.1Y-4.6
X5.1Y-4.9
X5.25Y-4.6
X5.25Y-4.9
X5.4Y-4.6
X5.4Y-4.9
X5.55Y-4.6
X5.55Y-4.9
X5.7Y-4.6
X5.7Y-4.9
X5.85Y-4.6
X5.85Y-4.9
X6.0Y-4.6
X6.0Y-4.9
X6.15Y-4.6
X6.15Y-4.9
X6.3Y-4.6
X6.3Y-4.9
T2
X3.1Y-4.3
X3.1Y-4.4
X3.95Y-3.85
X3.95Y-3.95
X4.05Y-3.85
X4.05Y-3.95
X4.15Y-3.85
X4.15Y-3.95
X4.25Y-3.85
X4.25Y-3.95
X4.35Y-3.85
X4.35Y-3.95
X4.45Y-3.85
X4.45Y-3.95
X4.55Y-3.85
X4.55Y-3.95
X4.65Y-3.85
X4.65Y-3.95
X4.75Y-3.85
X4.75Y-3.95
X4.85Y-3.85
X4.85Y-3.95
X4.95Y-3.85
X4.95Y-3.95
X5.05Y-3.85
X5.05Y-3.95
X5.15Y-3.85
X5.15Y-3.95
X5.25Y-3.85
X5.25Y-3.95
X5.35Y-3.85
X5.35Y-3.95
X5.45Y-3.85
X5.45Y-3.95
X5.55Y-3.85
X5.55Y-3.95
X5.65Y-3.85
X5.65Y-3.95
X5.75Y-3.85
X5.75Y-3.95
X5.85Y-3.85
X5.85Y-3.95
T0
M30
