%TF.GenerationSoftware,KiCad,Pcbnew,5.1.9-73d0e3b20d~88~ubuntu18.04.1*%
%TF.CreationDate,2021-04-04T15:33:15+02:00*%
%TF.ProjectId,resitor-substitution-board,72657369-746f-4722-9d73-756273746974,rev?*%
%TF.SameCoordinates,Original*%
%TF.FileFunction,Soldermask,Top*%
%TF.FilePolarity,Negative*%
%FSLAX46Y46*%
G04 Gerber Fmt 4.6, Leading zero omitted, Abs format (unit mm)*
G04 Created by KiCad (PCBNEW 5.1.9-73d0e3b20d~88~ubuntu18.04.1) date 2021-04-04 15:33:15*
%MOMM*%
%LPD*%
G01*
G04 APERTURE LIST*
%ADD10O,1.700000X1.700000*%
%ADD11R,1.700000X1.700000*%
%ADD12O,1.600000X1.600000*%
%ADD13C,1.600000*%
G04 APERTURE END LIST*
D10*
%TO.C,J2*%
X100330000Y-100330000D03*
X100330000Y-97790000D03*
X102870000Y-100330000D03*
X102870000Y-97790000D03*
X105410000Y-100330000D03*
X105410000Y-97790000D03*
X107950000Y-100330000D03*
X107950000Y-97790000D03*
X110490000Y-100330000D03*
X110490000Y-97790000D03*
X113030000Y-100330000D03*
X113030000Y-97790000D03*
X115570000Y-100330000D03*
X115570000Y-97790000D03*
X118110000Y-100330000D03*
X118110000Y-97790000D03*
X120650000Y-100330000D03*
X120650000Y-97790000D03*
X123190000Y-100330000D03*
X123190000Y-97790000D03*
X125730000Y-100330000D03*
X125730000Y-97790000D03*
X128270000Y-100330000D03*
X128270000Y-97790000D03*
X130810000Y-100330000D03*
X130810000Y-97790000D03*
X133350000Y-100330000D03*
X133350000Y-97790000D03*
X135890000Y-100330000D03*
X135890000Y-97790000D03*
X138430000Y-100330000D03*
X138430000Y-97790000D03*
X140970000Y-100330000D03*
X140970000Y-97790000D03*
X143510000Y-100330000D03*
X143510000Y-97790000D03*
X146050000Y-100330000D03*
X146050000Y-97790000D03*
X148590000Y-100330000D03*
D11*
X148590000Y-97790000D03*
%TD*%
%TO.C,J1*%
X78740000Y-109220000D03*
D10*
X78740000Y-111760000D03*
%TD*%
D12*
%TO.C,R1*%
X160020000Y-124460000D03*
D13*
X160020000Y-116840000D03*
%TD*%
%TO.C,R2*%
X156210000Y-116840000D03*
D12*
X156210000Y-124460000D03*
%TD*%
D13*
%TO.C,R3*%
X152400000Y-116840000D03*
D12*
X152400000Y-124460000D03*
%TD*%
%TO.C,R4*%
X148590000Y-124460000D03*
D13*
X148590000Y-116840000D03*
%TD*%
D12*
%TO.C,R5*%
X144780000Y-124460000D03*
D13*
X144780000Y-116840000D03*
%TD*%
%TO.C,R6*%
X140970000Y-124460000D03*
D12*
X140970000Y-116840000D03*
%TD*%
D13*
%TO.C,R7*%
X137160000Y-124460000D03*
D12*
X137160000Y-116840000D03*
%TD*%
D13*
%TO.C,R8*%
X133350000Y-124460000D03*
D12*
X133350000Y-116840000D03*
%TD*%
D13*
%TO.C,R9*%
X129540000Y-124460000D03*
D12*
X129540000Y-116840000D03*
%TD*%
%TO.C,R10*%
X125730000Y-116840000D03*
D13*
X125730000Y-124460000D03*
%TD*%
%TO.C,R11*%
X121920000Y-124460000D03*
D12*
X121920000Y-116840000D03*
%TD*%
%TO.C,R12*%
X118110000Y-116840000D03*
D13*
X118110000Y-124460000D03*
%TD*%
D12*
%TO.C,R13*%
X114300000Y-116840000D03*
D13*
X114300000Y-124460000D03*
%TD*%
%TO.C,R14*%
X110490000Y-124460000D03*
D12*
X110490000Y-116840000D03*
%TD*%
D13*
%TO.C,R15*%
X106680000Y-124460000D03*
D12*
X106680000Y-116840000D03*
%TD*%
%TO.C,R16*%
X102870000Y-124460000D03*
D13*
X102870000Y-116840000D03*
%TD*%
D12*
%TO.C,R17*%
X99060000Y-124460000D03*
D13*
X99060000Y-116840000D03*
%TD*%
%TO.C,R18*%
X95250000Y-116840000D03*
D12*
X95250000Y-124460000D03*
%TD*%
%TO.C,R19*%
X91440000Y-124460000D03*
D13*
X91440000Y-116840000D03*
%TD*%
D12*
%TO.C,R20*%
X87630000Y-124460000D03*
D13*
X87630000Y-116840000D03*
%TD*%
M02*
